<svg xmlns="http://www.w3.org/2000/svg" xmlns:xlink="http://www.w3.org/1999/xlink" width="32" height="42" viewBox="0 0 32 42">
  <defs>
    <linearGradient id="linear-gradient" y1="0.5" x2="1" y2="0.5" gradientUnits="objectBoundingBox">
      <stop offset="0" stop-color="#4c425f"/>
      <stop offset="0.03" stop-color="#574160"/>
      <stop offset="0.17" stop-color="#7b3f62"/>
      <stop offset="0.31" stop-color="#9a3e64"/>
      <stop offset="0.45" stop-color="#b13d65"/>
      <stop offset="0.61" stop-color="#c23c66"/>
      <stop offset="0.78" stop-color="#cc3b67"/>
      <stop offset="1" stop-color="#cf3b67"/>
    </linearGradient>
    <linearGradient id="linear-gradient-2" x1="0" y1="0.5" x2="1" y2="0.5" xlink:href="#linear-gradient"/>
  </defs>
  <g id="Group_200" data-name="Group 200" transform="translate(-680.47 -981.76)">
    <path id="Path_671" data-name="Path 671" d="M701.75,1047.71h24.61a3.7,3.7,0,0,0,3.69-3.7v-26h-8.61a3.69,3.69,0,0,1-3.69-3.69v-8.61h-16a3.7,3.7,0,0,0-3.7,3.69V1044a3.7,3.7,0,0,0,3.7,3.71Zm4.92-24.7h14.77a1.23,1.23,0,1,1,0,2.46H706.67a1.23,1.23,0,1,1,0-2.46Zm0,4.92h14.77a1.23,1.23,0,0,1,0,2.46H706.67a1.23,1.23,0,0,1,0-2.46Zm0,4.92h14.77a1.24,1.24,0,0,1,0,2.47H706.67a1.24,1.24,0,0,1,0-2.47Zm0,4.93h9.84a1.23,1.23,0,0,1,0,2.46h-9.84a1.23,1.23,0,0,1,0-2.46Z" transform="translate(-17.58 -23.95)" fill="url(#linear-gradient)"/>
    <path id="Path_672" data-name="Path 672" d="M721.44,1015.54h7.89l-9.12-9.12v7.89A1.23,1.23,0,0,0,721.44,1015.54Z" transform="translate(-17.58 -23.95)" fill="url(#linear-gradient-2)"/>
  </g>
</svg>
