<svg xmlns="http://www.w3.org/2000/svg" width="75.155" height="73.4" viewBox="0 0 75.155 73.4">
  <g id="Group_195" data-name="Group 195" transform="translate(-1156.055 -7.39)">
    <path id="Path_740" data-name="Path 740" d="M1212.49,44.07a14.081,14.081,0,0,1,3.22,6.15,21,21,0,0,1,.38,7.55c-.12,1-.3,2.15-.55,3.36a11.14,11.14,0,0,0,7.94,3.05c9.36,0,12.72-9.13,13.6-16.64,1.09-9.24-3.39-16.2-13.6-16.2-8,0-12.49,4.29-13.52,10.6a12.878,12.878,0,0,1,2.53,2.13" transform="translate(-17.58 -23.95)" fill="#fff"/>
    <path id="Path_741" data-name="Path 741" d="M1248.79,85.94a59.219,59.219,0,0,0-1-8.71c-.63-3.47-1.43-8.56-4.54-10.83-1.8-1.3-4.12-1.73-6.18-2.52a29.554,29.554,0,0,1-2.74-1.2,15.14,15.14,0,0,1-19.71,1.8,22.348,22.348,0,0,1-2.38,5.08,19.609,19.609,0,0,0,3.07,1.42c.53.2,1.11.38,1.72.58a17.24,17.24,0,0,1,5.21,2.35c4,2.91,5,8.37,5.71,12.36l.07.43c.37,2,.65,4,.82,6a93.73,93.73,0,0,0,9.49-1.51,57.465,57.465,0,0,0,7.44-2c1.94-.68,3.08-1,3-3.25" transform="translate(-17.58 -23.95)" fill="#fff"/>
    <path id="Path_744" data-name="Path 744" d="M1226.46,87.14l-.07-.44c-.68-3.72-1.6-8.83-5.09-11.37a16,16,0,0,0-4.75-2.12c-.63-.2-1.23-.39-1.8-.61a20.442,20.442,0,0,1-2.29-1,15,15,0,0,1-23.81,0c-.7.35-1.45.66-2.29,1-.57.22-1.17.41-1.8.61a16,16,0,0,0-4.75,2.12c-3.5,2.54-4.42,7.65-5.09,11.38l-.08.43a62.689,62.689,0,0,0-1,8.92c-.12,3.31,2,4,3.85,4.71l.2.07a59.724,59.724,0,0,0,7.66,2.06,77.82,77.82,0,0,0,15.18,1.84h0a77.82,77.82,0,0,0,15.18-1.84,60.175,60.175,0,0,0,7.66-2.06l.2-.07c1.86-.66,4-1.4,3.85-4.71a61.2,61.2,0,0,0-1-8.92" transform="translate(-17.58 -23.95)" fill="#fff"/>
    <path id="Path_745" data-name="Path 745" d="M1200.55,74.82c9.36,0,12.72-9.14,13.61-16.64,1.08-9.25-3.4-16.2-13.61-16.2s-14.68,7-13.6,16.2c.88,7.5,4.25,16.64,13.6,16.64" transform="translate(-17.58 -23.95)" fill="#fff"/>
  </g>
</svg>
