<svg width="24" height="24" viewBox="0 0 24 24" fill="none" xmlns="http://www.w3.org/2000/svg">
<path d="M7.50365 11.0041H6.86861C6.00201 10.9731 5.13822 11.1186 4.33084 11.4314C3.52347 11.7442 2.78974 12.2178 2.17518 12.8226L2 13.0247V19H4.9781V15.6082L5.37956 15.1608L5.56204 14.9515C6.51235 13.9863 7.69546 13.2761 9 12.8876C8.34686 12.3962 7.83174 11.7478 7.50365 11.0041V11.0041Z" fill="#C8C8C8"/>
<path d="M21.8489 12.8161C21.2432 12.2134 20.52 11.7416 19.7243 11.4298C18.9285 11.1181 18.0772 10.9732 17.223 11.0041C16.9611 11.0048 16.6993 11.0192 16.4388 11.0472C16.1094 11.7425 15.6156 12.3471 15 12.8089C16.3726 13.1885 17.6161 13.9342 18.5971 14.9661L18.777 15.1674L19.1655 15.6132V19H22V13.0174L21.8489 12.8161Z" fill="#C8C8C8"/>
<path d="M6.72366 8.97066H6.93C6.83412 8.0635 6.97856 7.14516 7.34588 6.32647C7.7132 5.50779 8.28768 4.82376 9 4.35697C8.74179 3.92226 8.38556 3.5689 7.9662 3.3315C7.54684 3.0941 7.07871 2.98079 6.60767 3.00266C6.13663 3.02454 5.67882 3.18085 5.27906 3.45629C4.87931 3.73174 4.55132 4.11687 4.32722 4.57397C4.10311 5.03108 3.99057 5.54449 4.00062 6.06393C4.01066 6.58336 4.14295 7.09102 4.38453 7.53719C4.6261 7.98336 4.96868 8.35274 5.37872 8.60916C5.78876 8.86559 6.2522 9.00026 6.72366 9V8.97066Z" fill="#C8C8C8"/>
<path d="M16.9468 8.45683C16.9548 8.62553 16.9548 8.79459 16.9468 8.9633C17.073 8.98563 17.2005 8.99789 17.3283 9H17.4532C17.9171 8.9724 18.3666 8.81123 18.758 8.5322C19.1495 8.25316 19.4695 7.86576 19.687 7.40771C19.9044 6.94966 20.0119 6.43657 19.999 5.9184C19.986 5.40023 19.853 4.89463 19.613 4.45082C19.373 4.00702 19.0341 3.64014 18.6294 3.38589C18.2246 3.13165 17.7677 2.99871 17.3032 3.00001C16.8388 3.00131 16.3825 3.13682 15.9789 3.39333C15.5752 3.64985 15.238 4.01863 15 4.46378C15.5953 4.89753 16.0848 5.48942 16.4245 6.18634C16.7643 6.88327 16.9438 7.66342 16.9468 8.45683V8.45683Z" fill="#C8C8C8"/>
<path d="M12 12C13.6569 12 15 10.433 15 8.5C15 6.567 13.6569 5 12 5C10.3431 5 9 6.567 9 8.5C9 10.433 10.3431 12 12 12Z" fill="#C8C8C8"/>
<path d="M12.5112 14.0066C11.5333 13.9678 10.5575 14.124 9.64257 14.4658C8.72762 14.8076 7.89241 15.328 7.1872 15.9957L7 16.202V20.8653C7.00292 21.0172 7.03623 21.167 7.09803 21.3062C7.15983 21.4455 7.2489 21.5714 7.36016 21.6767C7.47142 21.7821 7.60268 21.8648 7.74646 21.9203C7.89023 21.9757 8.0437 22.0027 8.19809 21.9998H16.8019C16.9563 22.0027 17.1098 21.9757 17.2535 21.9203C17.3973 21.8648 17.5286 21.7821 17.6398 21.6767C17.7511 21.5714 17.8402 21.4455 17.902 21.3062C17.9638 21.167 17.9971 21.0172 18 20.8653V16.2167L17.8203 15.9957C17.1196 15.326 16.2873 14.8041 15.3744 14.4621C14.4615 14.12 13.4872 13.965 12.5112 14.0066V14.0066Z" fill="#C8C8C8"/>
</svg>
