<svg width="24" height="24" viewBox="0 0 24 24" fill="none" xmlns="http://www.w3.org/2000/svg">
<g clip-path="url(#clip0_9_304)">
<path d="M11.7328 2C11.8936 2.06235 12.0534 2.10732 12.1972 2.18296C15.1425 3.74171 18.0858 5.30454 21.0301 6.86329C21.2798 6.99514 21.4766 7.14642 21.4736 7.46941C21.4706 7.7924 21.2688 7.93755 21.0202 8.0694C18.1068 9.6169 15.1934 11.1654 12.2861 12.7252C11.9145 12.9245 11.5849 12.9347 11.2104 12.7334C8.28806 11.1664 5.36072 9.60873 2.43237 8.05407C2.19467 7.92732 2.0119 7.76992 2.00191 7.48679C1.99093 7.17708 2.18368 7.00639 2.43737 6.87146C5.37969 5.30659 8.31902 3.7366 11.2613 2.17274C11.4042 2.0971 11.567 2.05928 11.7328 2Z" fill="#C7D42E"/>
<path d="M11.7599 17.426C11.5811 17.3616 11.4023 17.3217 11.2455 17.2379C8.30322 15.6741 5.36389 14.103 2.42057 12.5402C2.18087 12.4124 2.00409 12.2499 2.00009 11.9658C1.9951 11.6561 2.18986 11.4874 2.44753 11.3597C2.86302 11.1542 3.2765 10.9406 3.677 10.7065C3.9956 10.5205 4.27226 10.5266 4.60284 10.7065C6.5554 11.7665 8.52694 12.7917 10.4755 13.8598C11.3205 14.3228 12.1005 14.3463 12.9604 13.869C14.903 12.7896 16.8775 11.7716 18.8311 10.7126C19.1577 10.5358 19.4343 10.5113 19.7559 10.7024C20.1554 10.9396 20.5699 11.1501 20.9854 11.3556C21.2421 11.4823 21.4368 11.6489 21.4468 11.9566C21.4568 12.2673 21.265 12.438 21.0123 12.5719C18.098 14.1184 15.1866 15.67 12.2723 17.2175C12.1145 17.3013 11.9407 17.3544 11.7609 17.427L11.7599 17.426Z" fill="#C7D42E"/>
<path d="M11.7567 22C11.5849 21.9387 11.4051 21.8998 11.2483 21.816C8.30601 20.2522 5.36669 18.6822 2.42336 17.1183C2.18466 16.9916 2.00588 16.8301 1.99989 16.5459C1.9939 16.2362 2.18666 16.0655 2.44434 15.9378C2.85982 15.7323 3.2753 15.5217 3.6738 15.2836C4.01338 15.0802 4.29902 15.1201 4.64259 15.3071C6.58017 16.3609 8.53772 17.3749 10.4723 18.4348C11.3173 18.8978 12.0973 18.9244 12.9572 18.4471C14.8998 17.3677 16.8743 16.3497 18.8279 15.2907C19.1535 15.1139 19.4291 15.0863 19.7527 15.2775C20.1662 15.5228 20.5957 15.7405 21.0261 15.9551C21.2698 16.0768 21.4356 16.2495 21.4456 16.5306C21.4576 16.8413 21.2678 17.013 21.0141 17.148C18.0858 18.7036 15.1605 20.2654 12.2321 21.8211C12.0883 21.8978 11.9265 21.9376 11.7557 22.002L11.7567 22Z" fill="#C7D42E"/>
</g>
<defs>
<clipPath id="clip0_9_304">
<rect width="19.4737" height="20" fill="white" transform="translate(2 2)"/>
</clipPath>
</defs>
</svg>
