<svg width="24" height="24" viewBox="0 0 24 24" fill="none" xmlns="http://www.w3.org/2000/svg">
<path d="M11.8935 2C10.8701 2 9.86956 2.30356 9.01864 2.87227C8.16771 3.44098 7.50457 4.24929 7.11312 5.19495C6.72166 6.14061 6.61947 7.18113 6.81948 8.18488C7.01949 9.18862 7.5127 10.1105 8.23674 10.8339C8.96077 11.5573 9.88308 12.0497 10.887 12.2488C11.8909 12.4479 12.9314 12.3448 13.8767 11.9525C14.822 11.5602 15.6297 10.8963 16.1977 10.0449C16.7656 9.19343 17.0683 8.19266 17.0673 7.16918C17.0661 5.7978 16.5205 4.48301 15.5503 3.51373C14.5802 2.54445 13.2649 2 11.8935 2V2Z" fill="#C7D42E"/>
<path d="M20.7683 16.47C20.6299 16.1431 20.456 15.8324 20.2495 15.5436C19.7459 14.7933 19.0895 14.1579 18.3232 13.679C17.5569 13.2 16.698 12.8884 15.8029 12.7645C15.5717 12.7322 15.3368 12.7885 15.1452 12.922C14.203 13.6073 13.0679 13.9764 11.9029 13.9764C10.7378 13.9764 9.60274 13.6073 8.66058 12.922C8.56887 12.8513 8.46332 12.8008 8.3508 12.7737C8.23828 12.7465 8.12131 12.7434 8.00749 12.7645C6.92798 12.9125 5.90438 13.3347 5.03434 13.9907C4.1643 14.6466 3.47683 15.5146 3.03748 16.5117C3.00928 16.5807 2.99672 16.6552 3.00073 16.7296C3.00473 16.8041 3.02519 16.8768 3.06063 16.9424C3.24585 17.2631 3.45002 17.5724 3.67205 17.8688C3.98159 18.2901 4.32887 18.6823 4.70958 19.0407C5.03888 19.3675 5.38522 19.6767 5.74713 19.967C7.52362 21.2871 9.67804 22 11.8913 22C14.1046 22 16.259 21.2871 18.0355 19.967C18.4032 19.6836 18.7499 19.374 19.073 19.0407C19.4475 18.6763 19.7943 18.2846 20.1106 17.8688C20.3352 17.5743 20.5395 17.2648 20.722 16.9424C20.7808 16.8798 20.8172 16.7995 20.8256 16.7141C20.8339 16.6286 20.8138 16.5428 20.7683 16.47V16.47Z" fill="#C7D42E"/>
</svg>
