<svg width="36" height="36" viewBox="0 0 36 36" fill="none" xmlns="http://www.w3.org/2000/svg">
<path d="M31.8516 7.93126L18.3516 3.43126C18.1225 3.36076 17.8775 3.36076 17.6484 3.43126L4.1625 7.93126H4.13437L3.99375 8.00157H3.97969L3.83906 8.08594C3.83906 8.10001 3.825 8.10001 3.81094 8.11407L3.69844 8.21251L3.6 8.32501C3.6 8.33907 3.58594 8.33907 3.58594 8.35313L3.50156 8.47969C3.50156 8.49376 3.50156 8.49376 3.4875 8.50782L3.43125 8.63438L3.38906 8.78907V8.83126C3.37519 8.88636 3.37044 8.94337 3.375 9.00001V20.25C3.375 20.5484 3.49352 20.8345 3.7045 21.0455C3.91548 21.2565 4.20163 21.375 4.5 21.375C4.79837 21.375 5.08452 21.2565 5.29549 21.0455C5.50647 20.8345 5.625 20.5484 5.625 20.25V10.5609L10.35 12.1359C9.46232 13.5568 8.99433 15.1997 9 16.875C9.00052 18.3987 9.38786 19.8973 10.1257 21.2304C10.8636 22.5635 11.9279 23.6874 13.2187 24.4969C10.5362 25.5117 8.24605 27.3537 6.67969 29.7563C6.52003 30.0087 6.46594 30.3138 6.52907 30.6058C6.5922 30.8977 6.76749 31.1532 7.01719 31.3172C7.13972 31.3984 7.27715 31.4544 7.42151 31.4821C7.56587 31.5098 7.71429 31.5086 7.85817 31.4785C8.00205 31.4484 8.13853 31.3901 8.2597 31.3069C8.38087 31.2237 8.48432 31.1172 8.56406 30.9938C9.58518 29.4209 10.9833 28.1282 12.6312 27.2333C14.2792 26.3383 16.1247 25.8696 18 25.8696C19.8753 25.8696 21.7208 26.3383 23.3688 27.2333C25.0167 28.1282 26.4148 29.4209 27.4359 30.9938C27.5386 31.1497 27.6785 31.2776 27.843 31.366C28.0075 31.4544 28.1914 31.5004 28.3781 31.5C28.5936 31.5023 28.8047 31.4385 28.9828 31.3172C29.2325 31.1532 29.4078 30.8977 29.4709 30.6058C29.5341 30.3138 29.48 30.0087 29.3203 29.7563C27.7539 27.3537 25.4638 25.5117 22.7812 24.4969C24.0721 23.6874 25.1364 22.5635 25.8743 21.2304C26.6121 19.8973 26.9995 18.3987 27 16.875C27.0057 15.1997 26.5377 13.5568 25.65 12.1359L31.8516 10.0688C32.0766 9.99478 32.2726 9.85163 32.4115 9.65972C32.5505 9.46781 32.6253 9.23693 32.6253 9.00001C32.6253 8.76308 32.5505 8.53221 32.4115 8.3403C32.2726 8.14839 32.0766 8.00524 31.8516 7.93126V7.93126ZM18 23.625C16.2098 23.625 14.4929 22.9139 13.227 21.648C11.9612 20.3821 11.25 18.6652 11.25 16.875C11.2527 15.4346 11.7104 14.0319 12.5578 12.8672L17.6484 14.5688C17.8768 14.6439 18.1232 14.6439 18.3516 14.5688L23.4422 12.8672C24.2896 14.0319 24.7473 15.4346 24.75 16.875C24.75 18.6652 24.0388 20.3821 22.773 21.648C21.5071 22.9139 19.7902 23.625 18 23.625Z" fill="#C7D42E"/>
</svg>
