<svg width="36" height="36" viewBox="0 0 36 36" fill="none" xmlns="http://www.w3.org/2000/svg">
<path d="M31.8515 7.93126L18.3515 3.43126C18.1225 3.36076 17.8775 3.36076 17.6484 3.43126L4.16247 7.93126H4.13434L3.99372 8.00157H3.97966L3.83903 8.08594C3.83903 8.10001 3.82497 8.10001 3.81091 8.11407L3.69841 8.21251L3.59997 8.32501C3.59997 8.33907 3.58591 8.33907 3.58591 8.35313L3.50153 8.47969C3.50153 8.49376 3.50153 8.49376 3.48747 8.50782L3.43122 8.63438L3.38903 8.78907V8.83126C3.37516 8.88636 3.37041 8.94337 3.37497 9.00001V20.25C3.37497 20.5484 3.49349 20.8345 3.70447 21.0455C3.91545 21.2565 4.2016 21.375 4.49997 21.375C4.79834 21.375 5.08448 21.2565 5.29546 21.0455C5.50644 20.8345 5.62497 20.5484 5.62497 20.25V10.5609L10.35 12.1359C9.46229 13.5568 8.9943 15.1997 8.99997 16.875C9.00049 18.3987 9.38783 19.8973 10.1257 21.2304C10.8636 22.5635 11.9278 23.6874 13.2187 24.4969C10.5362 25.5117 8.24602 27.3537 6.67966 29.7563C6.52 30.0087 6.46591 30.3138 6.52904 30.6058C6.59217 30.8977 6.76746 31.1532 7.01716 31.3172C7.13969 31.3984 7.27712 31.4544 7.42148 31.4821C7.56584 31.5098 7.71426 31.5086 7.85814 31.4785C8.00202 31.4484 8.1385 31.3901 8.25967 31.3069C8.38084 31.2237 8.48429 31.1172 8.56403 30.9938C9.58515 29.4209 10.9833 28.1282 12.6312 27.2333C14.2792 26.3383 16.1247 25.8696 18 25.8696C19.8752 25.8696 21.7208 26.3383 23.3687 27.2333C25.0167 28.1282 26.4148 29.4209 27.4359 30.9938C27.5386 31.1497 27.6785 31.2776 27.843 31.366C28.0075 31.4544 28.1914 31.5004 28.3781 31.5C28.5936 31.5023 28.8046 31.4385 28.9828 31.3172C29.2325 31.1532 29.4078 30.8977 29.4709 30.6058C29.534 30.3138 29.4799 30.0087 29.3203 29.7563C27.7539 27.3537 25.4638 25.5117 22.7812 24.4969C24.0721 23.6874 25.1364 22.5635 25.8742 21.2304C26.6121 19.8973 26.9995 18.3987 27 16.875C27.0056 15.1997 26.5376 13.5568 25.65 12.1359L31.8515 10.0688C32.0766 9.99478 32.2726 9.85163 32.4115 9.65972C32.5505 9.46781 32.6253 9.23693 32.6253 9.00001C32.6253 8.76308 32.5505 8.53221 32.4115 8.3403C32.2726 8.14839 32.0766 8.00524 31.8515 7.93126V7.93126ZM18 23.625C16.2098 23.625 14.4929 22.9139 13.227 21.648C11.9611 20.3821 11.25 18.6652 11.25 16.875C11.2527 15.4346 11.7104 14.0319 12.5578 12.8672L17.6484 14.5688C17.8768 14.6439 18.1232 14.6439 18.3515 14.5688L23.4422 12.8672C24.2895 14.0319 24.7473 15.4346 24.75 16.875C24.75 18.6652 24.0388 20.3821 22.7729 21.648C21.5071 22.9139 19.7902 23.625 18 23.625Z" fill="#C8C8C8"/>
</svg>
