<svg width="36" height="36" viewBox="0 0 36 36" fill="none" xmlns="http://www.w3.org/2000/svg">
<path d="M19.4421 23.5846H17.5426C17.3776 23.5846 17.2367 23.465 17.2089 23.3028L16.8594 21.229C16.8242 21.0223 16.9836 20.8341 17.1931 20.8341H19.7916C20.0011 20.8341 20.1596 21.0223 20.1253 21.229L19.7758 23.3028C19.748 23.4659 19.6071 23.5846 19.4421 23.5846V23.5846Z" fill="#C8C8C8"/>
<path d="M19.7081 24.4328C19.6729 24.2799 19.5357 24.1705 19.3781 24.1705H17.6056C17.448 24.1705 17.3117 24.2789 17.2756 24.4328L16.7787 26.5752C16.7602 26.6568 16.7713 26.742 16.8121 26.8153L18.4909 29.8559L20.1698 26.8153C20.2106 26.742 20.2217 26.6568 20.2031 26.5752L19.7063 24.4328H19.7081Z" fill="#C8C8C8"/>
<path d="M18.4923 3C16.8821 3 15.308 3.47742 13.9694 4.372C12.6308 5.26657 11.5869 6.53845 10.9714 8.02633C10.3558 9.5142 10.1945 11.1513 10.5097 12.73C10.824 14.3088 11.5999 15.7596 12.7392 16.8979C13.8785 18.0363 15.3293 18.8104 16.909 19.1237C18.4886 19.4371 20.1257 19.2748 21.6127 18.6574C23.0996 18.04 24.3706 16.9953 25.2642 15.6567C26.1579 14.3171 26.6344 12.7421 26.6325 11.1319C26.6307 8.97467 25.7723 6.90555 24.2454 5.3806C22.7186 3.85657 20.6495 3 18.4923 3Z" fill="#C8C8C8"/>
<path d="M32.5453 26.1497C32.5314 26.2841 32.4748 26.4102 32.3821 26.5094C32.1124 26.9849 31.8129 27.4429 31.4838 27.8804C31.4634 27.9092 31.4412 27.9379 31.4199 27.9666C30.9221 28.6211 30.377 29.2367 29.7874 29.8105C29.2794 30.3343 28.7343 30.8219 28.1558 31.2678C26.0051 32.866 23.5012 33.8987 20.875 34.2889C20.0888 34.4067 19.2916 34.466 18.4888 34.466C15.0069 34.466 11.6168 33.3443 8.82179 31.2678C8.2526 30.8107 7.7075 30.3241 7.19023 29.8105C6.59044 29.2469 6.04442 28.6295 5.55773 27.9666C5.20825 27.5003 4.88657 27.0137 4.59548 26.5094C4.53986 26.4055 4.50742 26.2915 4.50093 26.1747C4.49536 26.057 4.51483 25.9402 4.55933 25.8317C5.24996 24.2632 6.3318 22.8967 7.70102 21.865C9.0693 20.8332 10.6795 20.1685 12.3788 19.9358C12.5577 19.9025 12.7412 19.908 12.9183 19.9507C12.948 19.9581 12.9767 19.9655 13.0054 19.9757C13.2808 21.6239 14.6769 28.8649 18.4638 32.4173C18.5389 32.4877 18.6584 32.4812 18.727 32.4043C19.4566 31.5876 23.1276 27.1731 24.0593 19.9729C24.2252 19.9275 24.3977 19.9117 24.5701 19.9284C24.5942 19.9293 24.6183 19.9321 24.6424 19.9358C26.0515 20.1305 27.4021 20.6209 28.6082 21.3746C29.8133 22.1282 30.846 23.1276 31.6386 24.3086C31.6498 24.3244 31.6618 24.3401 31.672 24.3568C31.9826 24.7971 32.2449 25.2699 32.4544 25.7659C32.5267 25.8808 32.5582 26.0153 32.5453 26.1497V26.1497Z" fill="#C8C8C8"/>
</svg>
