<svg width="36" height="36" viewBox="0 0 36 36" fill="none" xmlns="http://www.w3.org/2000/svg">
<path d="M19.4416 23.5846H17.5422C17.3772 23.5846 17.2363 23.465 17.2084 23.3028L16.859 21.229C16.8237 21.0223 16.9832 20.8341 17.1927 20.8341H19.7911C20.0006 20.8341 20.1592 21.0223 20.1249 21.229L19.7754 23.3028C19.7476 23.4659 19.6067 23.5846 19.4416 23.5846V23.5846Z" fill="#C7D42E"/>
<path d="M19.7079 24.4328C19.6727 24.2799 19.5355 24.1705 19.3779 24.1705H17.6054C17.4478 24.1705 17.3116 24.2789 17.2754 24.4328L16.7785 26.5752C16.76 26.6568 16.7711 26.742 16.8119 26.8153L18.4907 29.8559L20.1696 26.8153C20.2104 26.742 20.2215 26.6568 20.203 26.5752L19.7061 24.4328H19.7079Z" fill="#C7D42E"/>
<path d="M18.4925 3C16.8822 3 15.3081 3.47742 13.9695 4.372C12.6309 5.26657 11.587 6.53845 10.9715 8.02633C10.356 9.5142 10.1947 11.1513 10.5098 12.73C10.8241 14.3088 11.6 15.7596 12.7393 16.8979C13.8786 18.0363 15.3294 18.8104 16.9091 19.1237C18.4887 19.4371 20.1259 19.2748 21.6128 18.6574C23.0998 18.04 24.3707 16.9953 25.2644 15.6567C26.158 14.3171 26.6345 12.7421 26.6327 11.1319C26.6308 8.97467 25.7724 6.90555 24.2456 5.3806C22.7188 3.85657 20.6496 3 18.4925 3Z" fill="#C7D42E"/>
<path d="M32.5453 26.1497C32.5314 26.2841 32.4749 26.4102 32.3822 26.5094C32.1124 26.9849 31.813 27.4429 31.4839 27.8804C31.4635 27.9092 31.4412 27.9379 31.4199 27.9666C30.9221 28.6211 30.377 29.2367 29.7874 29.8105C29.2794 30.3343 28.7343 30.8219 28.1559 31.2678C26.0052 32.866 23.5013 33.8987 20.875 34.2889C20.0889 34.4067 19.2917 34.466 18.4889 34.466C15.007 34.466 11.6168 33.3443 8.82185 31.2678C8.25266 30.8107 7.70757 30.3241 7.19029 29.8105C6.5905 29.2469 6.04448 28.6295 5.5578 27.9666C5.20831 27.5003 4.88663 27.0137 4.59554 26.5094C4.53992 26.4055 4.50748 26.2915 4.50099 26.1747C4.49543 26.057 4.51489 25.9402 4.55939 25.8317C5.25002 24.2632 6.33186 22.8967 7.70108 21.865C9.06936 20.8332 10.6796 20.1685 12.3788 19.9358C12.5578 19.9025 12.7413 19.908 12.9184 19.9507C12.948 19.9581 12.9768 19.9655 13.0055 19.9757C13.2808 21.6239 14.6769 28.8649 18.4638 32.4173C18.5389 32.4877 18.6585 32.4812 18.7271 32.4043C19.4567 31.5876 23.1277 27.1731 24.0594 19.9729C24.2253 19.9275 24.3977 19.9117 24.5701 19.9284C24.5942 19.9293 24.6183 19.9321 24.6424 19.9358C26.0515 20.1305 27.4022 20.6209 28.6083 21.3746C29.8134 22.1282 30.8461 23.1276 31.6387 24.3086C31.6498 24.3244 31.6619 24.3401 31.6721 24.3568C31.9826 24.7971 32.245 25.2699 32.4545 25.7659C32.5268 25.8808 32.5583 26.0153 32.5453 26.1497V26.1497Z" fill="#C7D42E"/>
</svg>
