<svg width="36" height="36" viewBox="0 0 36 36" fill="none" xmlns="http://www.w3.org/2000/svg">
<path d="M15.3 3.60001C14.7414 3.59971 14.1965 3.77268 13.7403 4.09506C13.2841 4.41744 12.9392 4.87337 12.753 5.40001H9.9C9.18391 5.40001 8.49716 5.68447 7.99081 6.19082C7.48446 6.69717 7.2 7.38392 7.2 8.10001V29.7C7.2 30.4161 7.48446 31.1028 7.99081 31.6092C8.49716 32.1155 9.18391 32.4 9.9 32.4H26.1C26.8161 32.4 27.5028 32.1155 28.0092 31.6092C28.5155 31.1028 28.8 30.4161 28.8 29.7V8.10001C28.8 7.38392 28.5155 6.69717 28.0092 6.19082C27.5028 5.68447 26.8161 5.40001 26.1 5.40001H23.247C23.0608 4.87337 22.7158 4.41744 22.2597 4.09506C21.8035 3.77268 21.2586 3.59971 20.7 3.60001H15.3ZM14.4 6.30001C14.4 6.06131 14.4948 5.83239 14.6636 5.66361C14.8324 5.49483 15.0613 5.40001 15.3 5.40001H20.7C20.9387 5.40001 21.1676 5.49483 21.3364 5.66361C21.5052 5.83239 21.6 6.06131 21.6 6.30001C21.6 6.5387 21.5052 6.76762 21.3364 6.9364C21.1676 7.10519 20.9387 7.20001 20.7 7.20001H15.3C15.0613 7.20001 14.8324 7.10519 14.6636 6.9364C14.4948 6.76762 14.4 6.5387 14.4 6.30001ZM16.8372 14.1372L13.6872 17.2872C13.5232 17.451 13.3024 17.5452 13.0707 17.5502C12.839 17.5552 12.6143 17.4707 12.4434 17.3142L11.0934 16.0812C11.0017 16.0028 10.9266 15.9067 10.8728 15.7987C10.8189 15.6908 10.7873 15.573 10.7799 15.4526C10.7724 15.3321 10.7893 15.2114 10.8294 15.0976C10.8696 14.9838 10.9322 14.8792 11.0136 14.7901C11.095 14.701 11.1935 14.6292 11.3032 14.5789C11.4129 14.5286 11.5316 14.5009 11.6522 14.4974C11.7728 14.494 11.8929 14.5148 12.0053 14.5586C12.1178 14.6025 12.2202 14.6685 12.3066 14.7528L13.0212 15.4044L15.5628 12.8628C15.6465 12.7791 15.7458 12.7128 15.8551 12.6675C15.9645 12.6222 16.0817 12.5989 16.2 12.5989C16.3183 12.5989 16.4355 12.6222 16.5448 12.6675C16.6542 12.7128 16.7535 12.7791 16.8372 12.8628C16.9209 12.9465 16.9873 13.0458 17.0325 13.1552C17.0778 13.2645 17.1011 13.3817 17.1011 13.5C17.1011 13.6183 17.0778 13.7355 17.0325 13.8449C16.9873 13.9542 16.9209 14.0535 16.8372 14.1372V14.1372ZM16.8372 21.8628C16.921 21.9464 16.9875 22.0457 17.0329 22.1551C17.0782 22.2644 17.1016 22.3816 17.1016 22.5C17.1016 22.6184 17.0782 22.7356 17.0329 22.8449C16.9875 22.9543 16.921 23.0536 16.8372 23.1372L13.6872 26.2872C13.5232 26.451 13.3024 26.5452 13.0707 26.5502C12.839 26.5553 12.6143 26.4707 12.4434 26.3142L11.0934 25.0812C10.9262 24.9181 10.829 24.6964 10.8222 24.4629C10.8155 24.2294 10.8998 24.0025 11.0573 23.83C11.2148 23.6576 11.4332 23.5531 11.6663 23.5387C11.8994 23.5243 12.129 23.601 12.3066 23.7528L13.0212 24.4062L15.5628 21.8628C15.6464 21.779 15.7457 21.7125 15.8551 21.6671C15.9644 21.6218 16.0816 21.5984 16.2 21.5984C16.3184 21.5984 16.4356 21.6218 16.5449 21.6671C16.6543 21.7125 16.7536 21.779 16.8372 21.8628V21.8628ZM19.8 22.95H24.3C24.5387 22.95 24.7676 23.0448 24.9364 23.2136C25.1052 23.3824 25.2 23.6113 25.2 23.85C25.2 24.0887 25.1052 24.3176 24.9364 24.4864C24.7676 24.6552 24.5387 24.75 24.3 24.75H19.8C19.5613 24.75 19.3324 24.6552 19.1636 24.4864C18.9948 24.3176 18.9 24.0887 18.9 23.85C18.9 23.6113 18.9948 23.3824 19.1636 23.2136C19.3324 23.0448 19.5613 22.95 19.8 22.95ZM18.9 14.85C18.9 14.6113 18.9948 14.3824 19.1636 14.2136C19.3324 14.0448 19.5613 13.95 19.8 13.95H24.3C24.5387 13.95 24.7676 14.0448 24.9364 14.2136C25.1052 14.3824 25.2 14.6113 25.2 14.85C25.2 15.0887 25.1052 15.3176 24.9364 15.4864C24.7676 15.6552 24.5387 15.75 24.3 15.75H19.8C19.5613 15.75 19.3324 15.6552 19.1636 15.4864C18.9948 15.3176 18.9 15.0887 18.9 14.85Z" fill="#C8C8C8"/>
</svg>
