<svg width="36" height="36" viewBox="0 0 36 36" fill="none" xmlns="http://www.w3.org/2000/svg">
<path d="M24.1993 13.8269C24.1993 15.1236 23.8612 16.336 23.2705 17.3652C22.759 17.5373 22.2265 17.6438 21.6828 17.681C21.3707 17.4345 20.9831 17.2995 20.5731 17.2995H19.3656C19.1601 17.2995 18.9607 17.333 18.7799 17.3974C18.5223 17.4853 18.2845 17.6339 18.0913 17.8259C17.8077 18.1107 17.6244 18.486 17.5773 18.8773C17.5686 18.9504 17.5637 19.0247 17.5637 19.1002C17.5637 19.7083 17.8671 20.247 18.3303 20.574C18.1965 20.5827 18.0615 20.5876 17.9266 20.5876C14.4626 20.5876 11.6538 17.5608 11.6538 13.8269C11.6538 10.093 14.4626 7.06621 17.9266 7.06621C21.3905 7.06621 24.1993 10.093 24.1993 13.8269V13.8269Z" fill="#C8C8C8"/>
<path d="M28.4611 13.6312V16.6691C28.4611 17.5621 27.7378 18.2853 26.8449 18.2853C26.5365 18.2853 26.2492 18.1999 26.0052 18.05C25.9842 18.0376 25.9631 18.024 25.9421 18.0079C24.6752 18.8983 23.1457 19.4383 21.4923 19.4891C21.4416 19.6092 21.3685 19.7157 21.2781 19.8049C21.0985 19.9857 20.8496 20.0972 20.5734 20.0972H19.3659C18.8148 20.0972 18.369 19.6513 18.369 19.1002C18.369 19.0593 18.3714 19.0197 18.3764 18.9801C18.4036 18.7534 18.5077 18.5491 18.6612 18.3955C18.7665 18.2903 18.8953 18.2085 19.0402 18.159C19.1418 18.1231 19.252 18.1045 19.3659 18.1045H20.5734C20.8979 18.1045 21.1864 18.2593 21.3685 18.4996C22.8373 18.4736 24.1996 18.0054 25.3266 17.224C25.2622 17.0506 25.2275 16.8636 25.2275 16.6691V13.6312C25.2275 13.0479 25.5371 12.5364 26.0003 12.2528C25.7712 7.9554 22.2676 4.54223 17.9776 4.54223C13.6876 4.54223 10.1667 7.9715 9.95246 12.2825C10.0429 12.342 10.1271 12.4113 10.2039 12.4881C10.4961 12.7804 10.677 13.1841 10.677 13.6312V16.6691C10.677 17.2401 10.381 17.7416 9.93512 18.0277C9.68372 18.1912 9.38401 18.2853 9.06078 18.2853C8.16785 18.2853 7.44336 17.5621 7.44336 16.6691V13.6312C7.44336 12.9773 7.83099 12.4151 8.38954 12.1599C8.66571 7.02656 12.8517 2.95082 17.9776 2.95082C23.1036 2.95082 27.3019 7.03894 27.5657 12.1835C27.723 12.2615 27.8654 12.3655 27.988 12.4881C28.0958 12.5959 28.1886 12.7172 28.2617 12.8522C28.3893 13.0826 28.4611 13.3488 28.4611 13.6312V13.6312Z" fill="#C8C8C8"/>
<path d="M29.7538 29.2109C27.5692 33.621 17.9774 33.1306 17.9774 33.1306C17.9774 33.1306 8.38439 33.621 6.19977 29.2109C6.19977 29.2109 5.853 22.9468 12.631 20.7994C14.1593 21.8421 15.9984 22.4502 17.9774 22.4502C19.9565 22.4502 21.7956 21.8421 23.3238 20.7994C30.1006 22.9481 29.7538 29.2109 29.7538 29.2109V29.2109Z" fill="#C8C8C8"/>
</svg>
