<svg width="40" height="40" viewBox="0 0 40 40" fill="none" xmlns="http://www.w3.org/2000/svg">
<rect width="40" height="40" rx="20" fill="#A1AB23"/>
<path d="M20 10C14.36 10 10 14.13 10 19.7C10 22.61 11.19 25.14 13.14 26.87C13.3 27 13.4 27.22 13.41 27.44L13.46 29.22C13.5 29.79 14.07 30.16 14.59 29.93L16.57 29.06C16.74 29 16.93 28.97 17.1 29C18 29.27 19 29.4 20 29.4C25.64 29.4 30 25.27 30 19.7C30 14.13 25.64 10 20 10ZM26 17.46L23.07 22.13C22.6 22.86 21.6 23.05 20.9 22.5L18.56 20.77C18.4561 20.6921 18.3298 20.65 18.2 20.65C18.0702 20.65 17.9439 20.6921 17.84 20.77L14.68 23.17C14.26 23.5 13.71 23 14 22.54L16.93 17.87C17.4 17.14 18.4 16.95 19.1 17.47L21.44 19.23C21.5439 19.3079 21.6702 19.35 21.8 19.35C21.9298 19.35 22.0561 19.3079 22.16 19.23L25.32 16.83C25.74 16.5 26.29 17 26 17.46Z" fill="white"/>
</svg>
