<svg xmlns="http://www.w3.org/2000/svg" width="70" height="70"><rect id="backgroundrect" width="100%" height="100%" x="0" y="0" fill="none" stroke="none" style="" class=""/>
  
<g class="currentLayer" style=""><title>Layer 1</title>
    <g id="Group_184" data-name="Group 184" class="">
      <rect id="Rectangle_10" data-name="Rectangle 10" width="71.94171127933875" height="71.94171127933875" rx="20.514999389648438" fill="#c5c918" y="-2.0922844447034343" x="-0.7452008722285108"/>
      <g id="Group_68" data-name="Group 68">
        <g id="Group_67" data-name="Group 67">
          <path id="Path_104" data-name="Path 104" d="M24.81820027934964,51.51770855268569 zm20.814963704983256,-36.85850685740388 z" fill="#fff"/>
          <g id="Group_66" data-name="Group 66">
            <path id="Path_105" data-name="Path 105" d="M35.225627000251734,46.86246529515847 a12.984969868947019,12.984969868947019 0 1 0 -12.98606648638247,-12.980586406382827 A12.998120256639595,12.998120256639595 0 0 0 35.225627000251734,46.86246529515847 zm-9.835438484275755,-12.980586406382827 a9.835438484275755,9.835438484275755 0 1 1 9.835438484275755,9.83653409931867 A9.85078010205416,9.85078010205416 0 0 1 25.39021157100433,33.881842802644314 z" fill="#fff"/>
          </g>
          <path id="Path_106" data-name="Path 106" d="M48.176682922495274,55.447496273783145 H22.269150139168232 a8.826141467505977,8.826141467505977 0 0 1 -8.816278927334679,-8.816278927334679 V21.12482401335319 A8.826141467505977,8.826141467505977 0 0 1 22.269150139168232,12.304150597136413 h25.90199556695279 a8.826141467505977,8.826141467505977 0 0 1 8.816278927334679,8.816278927334679 v25.50638531395498 A8.826141467505977,8.826141467505977 0 0 1 48.176682922495274,55.447496273783145 zM22.269150139168232,15.524942067261236 a5.606473679415103,5.606473679415103 0 0 0 -5.598802870525901,5.599898485568815 v25.50638531395498 a5.606473679415103,5.606473679415103 0 0 0 5.598802870525901,5.599898485568815 h25.90199556695279 a5.606473679415103,5.606473679415103 0 0 0 5.599898485568815,-5.599898485568815 V21.12482401335319 a5.606473679415103,5.606473679415103 0 0 0 -5.599898485568815,-5.599898485568815 z" fill="#fff"/>
        </g>
        <path id="Path_107" data-name="Path 107" d="M48.38817972865672,19.41199178015222 a2.0492778955917004,2.0492778955917004 0 1 0 2.0514696268737964,2.0525654925148444 A2.0536613581558925,2.0536613581558925 0 0 0 48.38817972865672,19.41199178015222 z" fill="#fff"/>
      </g>
    </g>
    
    
    
  </g></svg>