<svg xmlns="http://www.w3.org/2000/svg" width="70" height="70"><rect id="backgroundrect" width="100%" height="100%" x="0" y="0" fill="none" stroke="none" style="" class=""/>
  
<g class="currentLayer" style=""><title>Layer 1</title>
    <g id="Group_184" data-name="Group 184" class="">
      <rect id="Rectangle_10" data-name="Rectangle 10" width="69.84380801182488" height="69.84380801182488" rx="20.514999389648438" fill="#c5c918" y="9.992930927182897e-10" x="-1.2362022516754223e-10"/>
      <g id="Group_68" data-name="Group 68">
        <g id="Group_67" data-name="Group 67">
          <path id="Path_104" data-name="Path 104" d="M24.817943334579468,52.04666447639465 zm20.207975387573242,-35.783668518066406 z" fill="#fff"/>
          <g id="Group_66" data-name="Group 66">
            <path id="Path_105" data-name="Path 105" d="M34.92187857627869,47.52717137336731 a12.606313705444336,12.606313705444336 0 1 0 -12.607378005981445,-12.602057456970215 A12.619080543518066,12.619080543518066 0 0 0 34.92187857627869,47.52717137336731 zm-9.548625946044922,-12.602057456970215 a9.548625946044922,9.548625946044922 0 1 1 9.548625946044922,9.549690246582031 A9.563520431518555,9.563520431518555 0 0 1 25.373273611068726,34.92508244514465 z" fill="#fff"/>
          </g>
          <path id="Path_106" data-name="Path 106" d="M47.495261907577515,55.86185383796692 H22.343225240707397 a8.568760871887207,8.568760871887207 0 0 1 -8.559185981750488,-8.559185981750488 V22.54007077217102 A8.568760871887207,8.568760871887207 0 0 1 22.343225240707397,13.97661805152893 h25.14666175842285 a8.568760871887207,8.568760871887207 0 0 1 8.559185981750488,8.559185981750488 v24.762590408325195 A8.568760871887207,8.568760871887207 0 0 1 47.495261907577515,55.86185383796692 zM22.343225240707397,17.103488206863403 a5.442982196807861,5.442982196807861 0 0 0 -5.435535430908203,5.436598777770996 v24.762590408325195 a5.442982196807861,5.442982196807861 0 0 0 5.435535430908203,5.436598777770996 h25.14666175842285 a5.442982196807861,5.442982196807861 0 0 0 5.436598777770996,-5.436598777770996 V22.54007077217102 a5.442982196807861,5.442982196807861 0 0 0 -5.436598777770996,-5.436598777770996 z" fill="#fff"/>
        </g>
        <path id="Path_107" data-name="Path 107" d="M47.70059561729431,20.877185106277466 a1.9895185232162476,1.9895185232162476 0 1 0 1.9916462898254395,1.9927103519439697 A1.993774175643921,1.993774175643921 0 0 0 47.70059561729431,20.877185106277466 z" fill="#fff"/>
      </g>
    </g>
    
    
    
  </g></svg>