<svg width="137.758" height="136.283" xmlns="http://www.w3.org/2000/svg">

 <g>
  <title>Layer 1</title>
  <g data-name="Group 185" id="Group_185">
   <rect x="2.23303" y="-0.365" fill="#c5c918" rx="20.515" height="134.648" width="134.648" data-name="Rectangle 17" id="Rectangle_17"/>
   <g data-name="Group 78" id="Group_78">
    <rect x="31.31091" y="47.8103" fill="#fff" height="53.82597" width="18.83489" data-name="Rectangle 18" id="Rectangle_18"/>
    <path fill="#fff" d="m40.72933,20.89834a9.42462,9.42462 0 1 0 9.41642,9.41642a9.43488,9.43488 0 0 0 -9.41642,-9.41642z" data-name="Path 115" id="Path_115"/>
    <path fill="#fff" d="m112.0447,64.34595c-1.2655,-10.14454 -6.33983,-16.53565 -20.05527,-16.53565c-9.73433,0 -13.60263,1.51984 -15.83624,5.76758l0,0l0,-5.76758l-15.24758,0l0,53.82802l15.69061,0l0,-28.17747c0,-7.03309 1.33319,-12.34738 10.02968,-12.34738c8.57343,0 9.26054,6.53878 9.26054,12.80272l0,27.72213l16.15825,0s0.29945,-34.92135 0,-37.29238z" data-name="Path 116" id="Path_116"/>
   </g>
  </g>
 </g>
</svg>