<svg width="71.39859771728516" height="70" xmlns="http://www.w3.org/2000/svg" style=""><rect id="backgroundrect" width="100%" height="100%" x="0" y="0" fill="none" stroke="none" style="" class=""/>

 <g style="" class="currentLayer">
  <title>Layer 1</title>
  <g data-name="Group 185" id="Group_185" class="">
   <rect x="2.2330300806995638" y="-0.3650000094942243" fill="#c5c918" rx="20.514999389648438" height="68.214428495412" width="68.214428495412" data-name="Rectangle 17" id="Rectangle_17"/>
   <g data-name="Group 78" id="Group_78">
    <rect x="16.964262444420456" y="24.041234129166696" fill="#fff" height="27.268936438713354" width="9.54200006501651" data-name="Rectangle 18" id="Rectangle_18"/>
    <path fill="#fff" d="m21.735754650339004,10.407284858232742 a4.774635105559355,4.774635105559355 0 1 0 4.770481084085532,4.770481084085532 a4.779832865699518,4.779832865699518 0 0 0 -4.770481084085532,-4.770481084085532 z" data-name="Path 115" id="Path_115"/>
    <path fill="#fff" d="m57.86505094036693,32.41840723799578 c-0.6411187273343444,-5.139356048960053 -3.2118404296284098,-8.377175056102715 -10.16026139020596,-8.377175056102715 c-4.9315381388510104,0 -6.8912689663193305,0.7699706754451086 -8.022845251616673,2.921931061638361 l0,0 l0,-2.921931061638361 l-7.724622242267287,0 l0,27.26997238828517 l7.949066948276595,0 l0,-14.275071588554056 c0,-3.56305508312289 0.6754113721740396,-6.255343435202576 5.081166644674795,-6.255343435202576 c4.343411359923266,0 4.691509888789369,3.3126313127809226 4.691509888789369,6.486024285015901 l0,14.044392686014362 l8.185980047346675,0 s0.1517052731514923,-17.69160990911587 0,-18.89280706855061 z" data-name="Path 116" id="Path_116"/>
   </g>
  </g>
 </g>
</svg>