<svg width="70" height="70" xmlns="http://www.w3.org/2000/svg"><rect id="backgroundrect" width="100%" height="100%" x="0" y="0" fill="none" stroke="none" style="" class=""/>

 <g style="" class="currentLayer">
  <title>Layer 1</title>
  <g data-name="Group 183" id="Group_183" class="">
   <rect x="2.097901962841757" y="0.69930070976306" fill="#c5c918" rx="20.514999389648438" height="66.81582702235912" width="66.81582702235912" data-name="Rectangle 16" id="Rectangle_16"/>
   <path fill="#fff" d="m58.65542435646057,19.963001251220703 a19.56801414489746,19.56801414489746 0 0 1 -5.061464309692383,1.2936115264892578 a9.530579566955566,9.530579566955566 0 0 0 4.107798099517822,-4.875211715698242 a0.14859485626220703,0.14859485626220703 0 0 0 -0.2137344479560852,-0.1791326105594635 a19.439775466918945,19.439775466918945 0 0 1 -5.777990818023682,2.108860969543457 a9.689352989196777,9.689352989196777 0 0 0 -7.036994934082031,-2.996370792388916 a9.493938446044922,9.493938446044922 0 0 0 -9.38808822631836,11.650636672973633 a27.530183792114258,27.530183792114258 0 0 1 -19.818391799926758,-9.855254173278809 a0.053944721817970276,0.053944721817970276 0 0 0 -0.08854655921459198,0.007125804666429758 a9.398265838623047,9.398265838623047 0 0 0 2.8498106002807617,12.485222816467285 a0.05801377445459366,0.05801377445459366 0 0 1 -0.03562406077980995,0.1068672239780426 a9.723958969116211,9.723958969116211 0 0 1 -4.082351207733154,-1.1348341703414917 a0.04885344207286835,0.04885344207286835 0 0 0 -0.07429990917444229,0.042744897305965424 a12.811933517456055,12.811933517456055 0 0 0 0.6513858437538147,3.4716811180114746 a9.725994110107422,9.725994110107422 0 0 0 7.0807623863220215,5.867554187774658 a10.093413352966309,10.093413352966309 0 0 1 -2.5444726943969727,0.33587053418159485 a9.580450057983398,9.580450057983398 0 0 1 -1.7302405834197998,-0.16081193089485168 a0.053944721817970276,0.053944721817970276 0 0 0 -0.06004829704761505,0.07022588700056076 a9.63846492767334,9.63846492767334 0 0 0 8.813036918640137,6.497567176818848 a0.05801377445459366,0.05801377445459366 0 0 1 0.03460679575800896,0.10178089141845703 a19.504913330078125,19.504913330078125 0 0 1 -11.844015121459961,3.9693758487701416 a20.12881851196289,20.12881851196289 0 0 1 -2.295114517211914,-0.13027916848659515 a27.611604690551758,27.611604690551758 0 0 0 14.773210525512695,4.2604660987854 a26.84520721435547,26.84520721435547 0 0 0 18.05863380432129,-6.513853549957275 a27.842641830444336,27.842641830444336 0 0 0 8.712278366088867,-14.748784065246582 a26.0706729888916,26.0706729888916 0 0 0 0.6595288515090942,-5.72812032699585 c0,-0.4071137011051178 -0.010177593678236008,-0.8193185925483704 -0.03155004605650902,-1.2264372110366821 a19.35835075378418,19.35835075378418 0 0 0 4.513894081115723,-4.4925217628479 a0.14757759869098663,0.14757759869098663 0 0 0 -0.1720067858695984,-0.22798603773117065 z" data-name="Path 114" id="Path_114"/>
  </g>
 </g>
</svg>