<svg width="137.758" height="136.283" xmlns="http://www.w3.org/2000/svg">

 <g>
  <title>Layer 1</title>
  <g data-name="Group 183" id="Group_183">
   <rect x="1.11102" y="-0.00002" fill="#c5c918" rx="20.515" height="134.648" width="134.648" data-name="Rectangle 16" id="Rectangle_16"/>
   <path fill="#fff" d="m115.08636,38.8204a39.43368,39.43368 0 0 1 -10.19992,2.6069a19.20613,19.20613 0 0 0 8.27808,-9.82458a0.29945,0.29945 0 0 0 -0.43072,-0.36099a39.17525,39.17525 0 0 1 -11.64387,4.2498a19.52609,19.52609 0 0 0 -14.18103,-6.03832a19.13229,19.13229 0 0 0 -18.91898,23.47849a55.47913,55.47913 0 0 1 -39.93824,-19.86042a0.10871,0.10871 0 0 0 -0.17844,0.01436a18.93949,18.93949 0 0 0 5.74297,25.16036a0.11691,0.11691 0 0 1 -0.07179,0.21536a19.59583,19.59583 0 0 1 -8.2268,-2.28693a0.09845,0.09845 0 0 0 -0.14973,0.08614a25.81875,25.81875 0 0 0 1.31268,6.99617a19.59993,19.59993 0 0 0 14.26923,11.82436a20.34036,20.34036 0 0 1 -5.12765,0.67685a19.30663,19.30663 0 0 1 -3.4868,-0.32407a0.10871,0.10871 0 0 0 -0.12101,0.14152a19.42354,19.42354 0 0 0 17.76013,13.09397a0.11691,0.11691 0 0 1 0.06974,0.20511a39.30652,39.30652 0 0 1 -23.86819,7.99913a40.56382,40.56382 0 0 1 -4.62514,-0.26254a55.64321,55.64321 0 0 0 29.77114,8.58574a54.09876,54.09876 0 0 0 36.39196,-13.12679a56.1088,56.1088 0 0 0 17.55708,-29.72191a52.53791,52.53791 0 0 0 1.32909,-11.54337c0,-0.82042 -0.02051,-1.6511 -0.06358,-2.47153a39.01116,39.01116 0 0 0 9.09645,-9.05338a0.2974,0.2974 0 0 0 -0.34663,-0.45944z" data-name="Path 114" id="Path_114"/>
  </g>
 </g>
</svg>