<svg xmlns="http://www.w3.org/2000/svg" height="53" width="68"><rect id="backgroundrect" width="100%" height="100%" x="0" y="0" fill="none" stroke="none" style="" class=""/><g class="currentLayer" style=""><title>Layer 1</title><g class=""><path d="M66.80683372473413,8.22853765282315 c-0.7847722921221916,-3.238888553601214 -3.0966372770951693,-5.789648130321041 -6.032772463222216,-6.655306604751985 C55.453367409547354,0 34.11621952120504,0 34.11621952120504,0 S12.77936710469146,0 7.458389108891595,1.5732285393044165 C4.522255810763454,2.438889740655739 2.2098066671290724,4.989645172456591 1.4256157016699262,8.22853765282315 C0,14.099141722723402 0,26.348078876388627 0,26.348078876388627 s0,12.248302762908395 1.425616055669721,18.11954384140904 C2.2098066671290724,47.70683413877168 4.522255810763454,50.25696979610893 7.458100717058755,51.12358072928964 c5.320982243797403,1.572591639780839 26.65783088431317,1.572591639780839 26.65783088431317,1.572591639780839 s21.337144112344504,0 26.65783088431317,-1.572591639780839 c2.9361354221269096,-0.8662958102617822 5.24800023009999,-3.4167369917582278 6.032772463222216,-6.655625981666702 c1.4259070435010557,-5.871241951115167 1.4259070435010557,-18.11954384140904 1.4259070435010557,-18.11954384140904 s0,-12.248938898894266 -1.4259070435010557,-18.11954384140904 " fill="#c5c918" id="svg_1" class="" opacity="1" fill-opacity="1"/><path d="M27.137886702058267,37.46904832166274 l17.833435391200283,-11.12033243667372 l-17.833435391200283,-11.121607326489027 z" fill="#fff" id="svg_2" class=""/><path d="M27.137886702058267,37.46904832166274 l17.833435391200283,-11.12033243667372 l-17.833435391200283,-11.121607326489027 z" fill="#fff" class="" id="svg_3" opacity="1"/><path d="M27.137886702058267,37.46904832166274 l17.833435391200283,-11.12033243667372 l-17.833435391200283,-11.121607326489027 z" fill="#fff" class="" opacity="1" id="svg_4"/></g></g></svg>