<svg xmlns="http://www.w3.org/2000/svg" width="36.176" height="42.98" viewBox="0 0 36.176 42.98">
  <path id="Path_746" data-name="Path 746" d="M443.69,363.5H473a1.09,1.09,0,0,0,.26,0h0a1.14,1.14,0,0,0,1.14-1.14v-32a1.14,1.14,0,0,0-1.14-1.13H443.69a5.47,5.47,0,0,0-5.46,5.47.491.491,0,0,0,0,.12v31.94a5.47,5.47,0,0,0,5.13,5.45h29.91A1.14,1.14,0,0,0,474.4,371v-4.27a1.14,1.14,0,0,0-2.27,0v3.13H443.69a3.2,3.2,0,0,1-3.19-3.07v-.32a3.2,3.2,0,0,1,3.19-2.97Zm.78-28.86a1.13,1.13,0,0,1,2.26,0v23a1.13,1.13,0,0,1-2.26,0Z" transform="translate(-438.226 -329.23)" fill="#c8c8c8"/>
</svg>
