<svg xmlns="http://www.w3.org/2000/svg" width="38.49" height="43" viewBox="0 0 38.49 43">
  <g id="Group_199" data-name="Group 199" transform="translate(-302.065 -497.988)">
    <g id="Group_56" data-name="Group 56">
      <g id="Group_55" data-name="Group 55">
        <path id="Path_77" data-name="Path 77" d="M321.313,497.988a11.165,11.165,0,1,0,11.164,11.165A11.194,11.194,0,0,0,321.313,497.988Z" fill="#fff"/>
      </g>
    </g>
    <g id="Group_58" data-name="Group 58">
      <g id="Group_57" data-name="Group 57">
        <path id="Path_78" data-name="Path 78" d="M340.473,529.239a10.488,10.488,0,0,0-1.121-2.048,13.877,13.877,0,0,0-9.6-6.045,2.054,2.054,0,0,0-1.413.341,11.9,11.9,0,0,1-14.041,0,1.83,1.83,0,0,0-1.414-.341,13.774,13.774,0,0,0-9.6,6.045,12.021,12.021,0,0,0-1.122,2.048,1.037,1.037,0,0,0,.049.926,19.5,19.5,0,0,0,1.316,1.95,18.521,18.521,0,0,0,2.243,2.536A29.509,29.509,0,0,0,308,536.6a22.235,22.235,0,0,0,26.521,0,21.546,21.546,0,0,0,2.243-1.95,22.5,22.5,0,0,0,2.243-2.536,17.037,17.037,0,0,0,1.316-1.95A.833.833,0,0,0,340.473,529.239Z" fill="#fff"/>
      </g>
    </g>
  </g>
</svg>
