<svg width="24" height="24" viewBox="0 0 24 24" fill="none" xmlns="http://www.w3.org/2000/svg">
<path d="M21.6056 17.8979L19.3876 16.4239L17.416 15.108C17.2329 14.9854 17.0101 14.9368 16.7925 14.9722C16.575 15.0076 16.379 15.1243 16.2443 15.2986L15.026 16.8657C14.8982 17.0296 14.7164 17.1429 14.5129 17.1855C14.3094 17.228 14.0975 17.1971 13.9147 17.0982C13.087 16.6332 12.1105 16.2007 9.95295 14.0432C7.7954 11.8856 7.35367 10.9045 6.89333 10.0768C6.79439 9.894 6.76346 9.68204 6.80602 9.47858C6.84859 9.27511 6.9619 9.09332 7.12582 8.9655L8.69283 7.74723C8.86719 7.61244 8.98386 7.41647 9.01925 7.19894C9.05464 6.98142 9.00611 6.75856 8.88348 6.57545L7.60941 4.66435L6.09355 2.38591C5.96829 2.19989 5.77632 2.06913 5.55736 2.02066C5.3384 1.9722 5.10919 2.00973 4.91713 2.12551L3.16411 3.18103C2.69081 3.46118 2.34298 3.91219 2.19229 4.44115C1.7273 6.18486 1.62035 10.021 7.77216 16.21C13.924 22.399 17.7973 22.2874 19.541 21.7899C20.07 21.6392 20.521 21.2914 20.8012 20.8181L21.8474 19.0651C21.9622 18.876 22.0011 18.6505 21.9562 18.4339C21.9113 18.2173 21.7861 18.0258 21.6056 17.8979V17.8979Z" fill="#C7D42E"/>
<path d="M13.3707 5.10143C14.925 5.10389 16.415 5.72243 17.5141 6.82152C18.6132 7.92061 19.2317 9.41059 19.2342 10.9649C19.2342 11.0562 19.2705 11.1437 19.335 11.2082C19.3995 11.2728 19.487 11.309 19.5783 11.309C19.6696 11.309 19.7571 11.2728 19.8216 11.2082C19.8861 11.1437 19.9224 11.0562 19.9224 10.9649C19.9212 9.2285 19.2311 7.56347 18.0037 6.33519C16.7763 5.10691 15.1118 4.4157 13.3754 4.41324C13.2841 4.41324 13.1966 4.44949 13.132 4.51402C13.0675 4.57855 13.0312 4.66608 13.0312 4.75734C13.0312 4.8486 13.0675 4.93612 13.132 5.00065C13.1966 5.06518 13.2841 5.10143 13.3754 5.10143H13.3707Z" fill="#C7D42E"/>
<path d="M13.3707 7.17066C14.377 7.17066 15.3421 7.57042 16.0537 8.28199C16.7653 8.99356 17.165 9.95866 17.165 10.965C17.165 11.0562 17.2013 11.1437 17.2658 11.2083C17.3303 11.2728 17.4178 11.3091 17.5091 11.3091C17.6004 11.3091 17.6879 11.2728 17.7524 11.2083C17.8169 11.1437 17.8532 11.0562 17.8532 10.965C17.8538 10.3762 17.7383 9.793 17.5132 9.24888C17.2882 8.70476 16.958 8.21037 16.5417 7.79401C16.1253 7.37765 15.6309 7.04749 15.0868 6.82244C14.5427 6.59739 13.9595 6.48187 13.3707 6.48249C13.2794 6.48249 13.1919 6.51874 13.1274 6.58327C13.0629 6.64779 13.0266 6.73531 13.0266 6.82657C13.0266 6.91783 13.0629 7.00535 13.1274 7.06988C13.1919 7.13441 13.2794 7.17066 13.3707 7.17066V7.17066Z" fill="#C7D42E"/>
<path d="M13.3707 9.22588C13.8282 9.22588 14.267 9.40763 14.5905 9.73115C14.914 10.0547 15.0958 10.4935 15.0958 10.951C15.0958 11.0422 15.1321 11.1298 15.1966 11.1943C15.2611 11.2588 15.3486 11.2951 15.4399 11.2951C15.5316 11.2951 15.6196 11.259 15.6849 11.1946C15.7501 11.1302 15.7874 11.0427 15.7886 10.951C15.7874 10.3113 15.5328 9.6982 15.0804 9.24589C14.6281 8.79357 14.015 8.53892 13.3754 8.53769C13.2841 8.53769 13.1966 8.57395 13.132 8.63848C13.0675 8.70301 13.0312 8.79053 13.0312 8.88179C13.0312 8.97305 13.0675 9.06057 13.132 9.1251C13.1966 9.18963 13.2841 9.22588 13.3754 9.22588H13.3707Z" fill="#C7D42E"/>
</svg>
